<svg xmlns="http://www.w3.org/2000/svg" xmlns:xlink="http://www.w3.org/1999/xlink" xmlns:lucid="lucid" width="1760" height="1360"><g transform="translate(0 0)" lucid:page-tab-id="0_0"><path d="M0 0h1760v1360H0z" fill="#fff"/><path d="M403.9 68a8 8 0 0 1 8-8h935.14a8 8 0 0 1 8 8v41.1a8 8 0 0 1-8 8H411.9a8 8 0 0 1-8-8z" stroke="#000" stroke-opacity="0" stroke-width="2" fill="#fff" fill-opacity="0"/><use xlink:href="#a" transform="matrix(1,0,0,1,407.8942319528828,64) translate(355.264013671875 33.72645833333333)"/><use xlink:href="#b" transform="matrix(1,0,0,1,407.8942319528828,64) translate(478.3404720052083 33.72645833333333)"/><path d="M523.86 115.25h707.68M523.9 115.25h-1.04" stroke="#a9afb8" stroke-width="2" fill="none"/><path d="M1232.54 116.22h-1.02v-1.94h1.02z" stroke="#a9afb8" stroke-width=".05" fill="#a9afb8"/><path d="M403.9 125.1a8 8 0 0 1 8-8h936.2a8 8 0 0 1 8 8v10.16a8 8 0 0 1-8 8H411.9a8 8 0 0 1-8-8z" stroke="#000" stroke-opacity="0" stroke-width="2" fill="#fff" fill-opacity="0"/><use xlink:href="#c" transform="matrix(1,0,0,1,407.8942319528832,121.11337202181875) translate(314.4701114908854 16.757881944444446)"/><use xlink:href="#d" transform="matrix(1,0,0,1,407.8942319528832,121.11337202181875) translate(356.6397148980035 16.757881944444446)"/><use xlink:href="#e" transform="matrix(1,0,0,1,407.8942319528832,121.11337202181875) translate(402.747741156684 16.757881944444446)"/><use xlink:href="#f" transform="matrix(1,0,0,1,407.8942319528832,121.11337202181875) translate(480.640993109809 16.757881944444446)"/><use xlink:href="#g" transform="matrix(1,0,0,1,407.8942319528832,121.11337202181875) translate(531.743245171441 16.757881944444446)"/><use xlink:href="#h" transform="matrix(1,0,0,1,407.8942319528832,121.11337202181875) translate(544.4753952365452 16.757881944444446)"/><use xlink:href="#i" transform="matrix(1,0,0,1,407.8942319528832,121.11337202181875) translate(579.4697062174479 16.757881944444446)"/><use xlink:href="#j" transform="matrix(1,0,0,1,407.8942319528832,121.11337202181875) translate(602.0027639431423 16.757881944444446)"/><path d="M40 196a16 16 0 0 1 16-16h468a16 16 0 0 1 16 16v72a16 16 0 0 1-16 16H56a16 16 0 0 1-16-16z" fill="#fff"/><path d="M40 220h500v33H40z" fill="#fff"/><path d="M40 252h500v16a16 16 0 0 1-16 16H56a16 16 0 0 1-16-16z" fill="#fff"/><path d="M41 220h498H41zM40 196a16 16 0 0 1 16-16h468a16 16 0 0 1 16 16v72a16 16 0 0 1-16 16H56a16 16 0 0 1-16-16zM107.6 221v62zM335.33 221v62z" stroke="#000" stroke-width="2" fill="none"/><use xlink:href="#k" transform="matrix(1,0,0,1,50,180) translate(203.05078125 26.5478515625)"/><use xlink:href="#l" transform="matrix(1,0,0,1,45,222.5) translate(17.205078125 20.0478515625)"/><use xlink:href="#m" transform="matrix(1,0,0,1,112.6103515625,222.5) translate(101.3095703125 20.0478515625)"/><use xlink:href="#n" transform="matrix(1,0,0,1,340.32763671875,222.5) translate(67.47216796875 20.0478515625)"/><use xlink:href="#o" transform="matrix(1,0,0,1,112.6103515625,254.5) translate(85.498046875 20.0478515625)"/><use xlink:href="#p" transform="matrix(1,0,0,1,340.32763671875,254.5) translate(54.64013671875 20.0478515625)"/><path d="M630 628a16 16 0 0 1 16-16h468a16 16 0 0 1 16 16v136a16 16 0 0 1-16 16H646a16 16 0 0 1-16-16z" fill="#fff"/><path d="M630 652h500v33H630z" fill="#fff"/><path d="M630 684h500v33H630z" fill="#fff"/><path d="M630 716h500v33H630z" fill="#fff"/><path d="M630 748h500v16a16 16 0 0 1-16 16H646a16 16 0 0 1-16-16z" fill="#fff"/><path d="M631 652h498-498zM630 628a16 16 0 0 1 16-16h468a16 16 0 0 1 16 16v136a16 16 0 0 1-16 16H646a16 16 0 0 1-16-16zM695.6 653v126zM924.33 653v126z" stroke="#000" stroke-width="2" fill="none"/><use xlink:href="#q" transform="matrix(1,0,0,1,640.0000000000002,612) translate(192.64013671875 26.5478515625)"/><use xlink:href="#l" transform="matrix(1,0,0,1,635.0000000000002,654.5) translate(16.205078125 20.0478515625)"/><use xlink:href="#m" transform="matrix(1,0,0,1,700.6103515625002,654.5) translate(101.8095703125 20.0478515625)"/><use xlink:href="#n" transform="matrix(1,0,0,1,929.3276367187502,654.5) translate(67.97216796875 20.0478515625)"/><use xlink:href="#r" transform="matrix(1,0,0,1,635.0000000000002,686.5) translate(16.64013671875 20.0478515625)"/><use xlink:href="#s" transform="matrix(1,0,0,1,700.6103515625002,686.5) translate(70.0107421875 20.0478515625)"/><use xlink:href="#n" transform="matrix(1,0,0,1,929.3276367187502,686.5) translate(67.97216796875 20.0478515625)"/><use xlink:href="#t" transform="matrix(1,0,0,1,635.0000000000002,718.5) translate(14.4208984375 20.0478515625)"/><use xlink:href="#u" transform="matrix(1,0,0,1,700.6103515625002,718.5) translate(31.00927734375 20.0478515625)"/><use xlink:href="#n" transform="matrix(1,0,0,1,929.3276367187502,718.5) translate(67.97216796875 20.0478515625)"/><use xlink:href="#v" transform="matrix(1,0,0,1,700.6103515625002,750.5) translate(73.06494140625 20.0478515625)"/><use xlink:href="#w" transform="matrix(1,0,0,1,929.3276367187502,750.5) translate(61.53857421875 20.0478515625)"/><path d="M1220 1096a16 16 0 0 1 16-16h468a16 16 0 0 1 16 16v136a16 16 0 0 1-16 16h-468a16 16 0 0 1-16-16z" fill="#fff"/><path d="M1220 1120h500v33h-500z" fill="#fff"/><path d="M1220 1152h500v33h-500z" fill="#fff"/><path d="M1220 1184h500v33h-500z" fill="#fff"/><path d="M1220 1216h500v16a16 16 0 0 1-16 16h-468a16 16 0 0 1-16-16z" fill="#fff"/><path d="M1221 1120h498-498zM1220 1096a16 16 0 0 1 16-16h468a16 16 0 0 1 16 16v136a16 16 0 0 1-16 16h-468a16 16 0 0 1-16-16zM1287.6 1121v126zM1515.33 1121v126z" stroke="#000" stroke-width="2" fill="none"/><use xlink:href="#x" transform="matrix(1,0,0,1,1230,1080) translate(204.2373046875 26.5478515625)"/><use xlink:href="#l" transform="matrix(1,0,0,1,1225,1122.5) translate(17.205078125 20.0478515625)"/><use xlink:href="#m" transform="matrix(1,0,0,1,1292.6103515625,1122.5) translate(101.3095703125 20.0478515625)"/><use xlink:href="#n" transform="matrix(1,0,0,1,1520.32763671875,1122.5) translate(67.47216796875 20.0478515625)"/><use xlink:href="#t" transform="matrix(1,0,0,1,1225,1154.5) translate(15.4208984375 20.0478515625)"/><use xlink:href="#y" transform="matrix(1,0,0,1,1292.6103515625,1154.5) translate(81.62646484375 20.0478515625)"/><use xlink:href="#z" transform="matrix(1,0,0,1,1520.32763671875,1154.5) translate(74.6484375 20.0478515625)"/><use xlink:href="#r" transform="matrix(1,0,0,1,1225,1186.5) translate(17.64013671875 20.0478515625)"/><use xlink:href="#A" transform="matrix(1,0,0,1,1292.6103515625,1186.5) translate(55.48779296875 20.0478515625)"/><use xlink:href="#n" transform="matrix(1,0,0,1,1520.32763671875,1186.5) translate(67.47216796875 20.0478515625)"/><use xlink:href="#B" transform="matrix(1,0,0,1,1292.6103515625,1218.5) translate(79.47314453125 20.0478515625)"/><g><use xlink:href="#w" transform="matrix(1,0,0,1,1520.32763671875,1218.5) translate(61.03857421875 20.0478515625)"/></g><path d="M609 668h-12a12 12 0 0 1-12-12V240a4 4 0 0 0-4-4M629 668h-20m0-10v20" stroke="#333" stroke-width="3" fill="none"/><path d="M541.67 236h20m-20 10l20-10m-20-10l20 10m0 .1v-.1a10 10 0 0 1 10-10 10 10 0 0 1 10 10 10 10 0 0 1-10 10 10 10 0 0 1-10-10v-.1" stroke="#333" stroke-width="3" fill="#fff"/><path d="M1199 1136h-12a12 12 0 0 1-12-12V672a4 4 0 0 0-4-4M1219 1136h-20m0-10v20" stroke="#333" stroke-width="3" fill="none"/><path d="M1131.67 668h20m-20 10l20-10m-20-10l20 10m0 .1v-.1a10 10 0 0 1 10-10 10 10 0 0 1 10 10 10 10 0 0 1-10 10 10 10 0 0 1-10-10v-.1" stroke="#333" stroke-width="3" fill="#fff"/><defs><path fill="#a9afb8" d="M135 0v-1490h340l471 754c59 97 122 210 187 365-32-387-14-721-19-1119h312V0h-341C855-382 627-689 427-1113c32 420 16 695 20 1113H135" id="C"/><path fill="#a9afb8" d="M750 21c-371 0-615-218-615-544v-967h305v942c0 174 123 299 310 299s309-125 309-299v-942h306v967c0 326-247 544-615 544" id="D"/><path fill="#a9afb8" d="M786 20C389 20 94-260 94-744c0-487 299-766 692-766 339 0 597 194 641 529h-309c-28-162-156-258-326-258-233 0-388 179-388 495 0 323 157 493 387 493 170 0 298-97 328-259h309c-34 277-266 530-642 530" id="E"/><path fill="#a9afb8" d="M135 0v-1490h305v1237h643V0H135" id="F"/><path fill="#a9afb8" d="M135 0v-1490h997v253H440v360h640v249H440v375h694V0H135" id="G"/><path fill="#a9afb8" d="M49 0l509-1490h400L1480 0h-339l-115-346H497L386 0H49zm524-585h374c-75-213-124-402-192-666-66 268-110 453-182 666" id="H"/><path fill="#a9afb8" d="M135 0v-1490h581c339 0 533 192 533 485 0 204-94 351-264 424L1302 0H964L680-532H440V0H135zm305-779h220c186 0 274-77 274-226 0-150-88-233-275-233H440v459" id="I"/><g id="a"><use transform="matrix(0.011907552083333333,0,0,0.011907552083333333,0,0)" xlink:href="#C"/><use transform="matrix(0.011907552083333333,0,0,0.011907552083333333,18.587688802083335,0)" xlink:href="#D"/><use transform="matrix(0.011907552083333333,0,0,0.011907552083333333,36.437109375000006,0)" xlink:href="#E"/><use transform="matrix(0.011907552083333333,0,0,0.011907552083333333,54.477050781250014,0)" xlink:href="#F"/><use transform="matrix(0.011907552083333333,0,0,0.011907552083333333,68.26599609375,0)" xlink:href="#G"/><use transform="matrix(0.011907552083333333,0,0,0.011907552083333333,83.07899088541667,0)" xlink:href="#H"/><use transform="matrix(0.011907552083333333,0,0,0.011907552083333333,101.28563802083336,0)" xlink:href="#I"/></g><path fill="#a9afb8" d="M789 20C394 20 94-260 94-744c0-487 300-766 695-766s695 279 695 766c0 485-300 764-695 764zm0-271c231 0 385-174 385-493 0-321-154-495-385-495s-385 175-385 495c0 319 154 493 385 493" id="J"/><path fill="#a9afb8" d="M75-1237v-253h1217v253H837V0H531v-1237H75" id="K"/><path fill="#a9afb8" d="M795 20C377 20 94-272 94-743c0-483 302-767 694-767 335 0 593 206 635 500h-310c-42-142-154-229-320-229-230 0-389 177-389 493s154 495 393 495c212 0 340-120 345-311H818v-232h620v186c0 391-269 628-643 628" id="L"/><path fill="#a9afb8" d="M681 22C323 22 94-145 85-462h297c10 151 131 226 296 226 163 0 271-77 271-190 0-102-95-149-257-189l-164-41c-252-61-403-188-403-405 0-269 236-449 560-449 330 0 546 183 551 445H941c-11-119-106-188-259-188-156 0-244 72-244 172-3 156 226 185 373 221 250 61 445 186 445 436 0 271-213 446-575 446" id="M"/><g id="b"><use transform="matrix(0.011907552083333333,0,0,0.011907552083333333,0,0)" xlink:href="#J"/><use transform="matrix(0.011907552083333333,0,0,0.011907552083333333,18.7901171875,0)" xlink:href="#D"/><use transform="matrix(0.011907552083333333,0,0,0.011907552083333333,36.63953776041667,0)" xlink:href="#K"/><use transform="matrix(0.011907552083333333,0,0,0.011907552083333333,50.749986979166664,0)" xlink:href="#H"/><use transform="matrix(0.011907552083333333,0,0,0.011907552083333333,67.93258463541667,0)" xlink:href="#L"/><use transform="matrix(0.011907552083333333,0,0,0.011907552083333333,86.23449218750001,0)" xlink:href="#G"/><use transform="matrix(0.011907552083333333,0,0,0.011907552083333333,101.04748697916666,0)" xlink:href="#M"/></g><path fill="#a9afb8" d="M645 0H180v-1490h484c435 0 692 280 692 742 0 466-257 748-711 748zM370-168h263c363 0 539-218 539-580 0-358-176-574-521-574H370v1154" id="N"/><path fill="#a9afb8" d="M140 405l46-156c120 36 205 19 263-150l32-93L54-1118h197c107 313 237 620 324 950 87-331 219-637 326-950h196L606 167c-68 178-176 259-334 259-64 0-113-12-132-21" id="O"/><path fill="#a9afb8" d="M338-1490V0H158v-1490h180" id="P"/><path fill="#a9afb8" d="M471 26C259 26 90-98 90-318c0-256 228-303 435-329 202-27 287-16 287-108 0-139-79-219-234-219-161 0-248 86-283 164l-173-57c86-203 278-265 451-265 150 0 419 46 419 395V0H815v-152h-12C765-73 660 26 471 26zm31-159c199 0 310-134 310-271v-155c-30 35-226 55-295 64-131 17-246 59-246 186 0 116 97 176 231 176" id="Q"/><path fill="#a9afb8" d="M338-670V0H158v-1118h173l1 207c72-158 192-221 342-221 226 0 378 139 378 422V0H872v-695c0-172-96-275-252-275-161 0-282 109-282 300" id="R"/><g id="c"><use transform="matrix(0.006946072048611111,0,0,0.006946072048611111,0,0)" xlink:href="#N"/><use transform="matrix(0.006946072048611111,0,0,0.006946072048611111,10.266294487847222,0)" xlink:href="#O"/><use transform="matrix(0.006946072048611111,0,0,0.006946072048611111,18.330684136284724,0)" xlink:href="#P"/><use transform="matrix(0.006946072048611111,0,0,0.006946072048611111,21.775935872395834,0)" xlink:href="#Q"/><use transform="matrix(0.006946072048611111,0,0,0.006946072048611111,29.76391872829861,0)" xlink:href="#R"/></g><path fill="#a9afb8" d="M52 0l541-1490h220L1361 0h-200l-149-416H398L254 0H52zm404-582h497c-103-290-145-390-251-756-108 377-145 460-246 756" id="S"/><path fill="#a9afb8" d="M158 0v-1118h174v172h12c41-113 157-188 290-188 26 0 70 2 91 3v181c-11-2-60-10-108-10-161 0-279 109-279 260V0H158" id="T"/><path fill="#a9afb8" d="M598-1118v154H368v674c0 100 37 144 132 144 23 0 62-6 92-12L629-6c-37 13-88 20-134 20-193 0-307-107-307-290v-688H20v-154h168v-266h180v266h230" id="U"/><path fill="#a9afb8" d="M537 14c-226 0-379-139-379-422v-710h180v695c0 172 97 275 253 275 160 0 281-109 281-300v-670h181V0H879v-209C806-46 684 14 537 14" id="V"/><path fill="#a9afb8" d="M613 24c-304 0-509-231-509-576 0-350 205-580 509-580 305 0 511 230 511 580 0 345-206 576-511 576zm0-161c226 0 329-195 329-415 0-222-103-419-329-419-223 0-326 196-326 419 0 220 103 415 326 415" id="W"/><g id="d"><use transform="matrix(0.006946072048611111,0,0,0.006946072048611111,0,0)" xlink:href="#S"/><use transform="matrix(0.006946072048611111,0,0,0.006946072048611111,9.8147998046875,0)" xlink:href="#T"/><use transform="matrix(0.006946072048611111,0,0,0.006946072048611111,15.392495659722222,0)" xlink:href="#U"/><use transform="matrix(0.006946072048611111,0,0,0.006946072048611111,20.046363932291666,0)" xlink:href="#V"/><use transform="matrix(0.006946072048611111,0,0,0.006946072048611111,28.45805718315972,0)" xlink:href="#T"/><use transform="matrix(0.006946072048611111,0,0,0.006946072048611111,33.57731228298611,0)" xlink:href="#W"/></g><path fill="#a9afb8" d="M180 0v-1490h190v644h782v-644h190V0h-190v-678H370V0H180" id="X"/><path fill="#a9afb8" d="M628 24c-324 0-524-230-524-574 0-343 198-582 503-582 237 0 487 146 487 559v75H286c9 234 145 362 343 362 132 0 231-58 273-172l174 48C1024-91 857 24 628 24zM287-650h624c-17-190-120-322-304-322-192 0-309 151-320 322" id="Y"/><path fill="#a9afb8" d="M471 26C259 26 90-98 90-318c0-256 228-303 435-329 202-27 287-16 287-108 0-139-79-219-234-219-161 0-248 86-283 164l-173-57c86-203 278-265 451-265 150 0 419 46 419 395V0H815v-152h-12C765-73 660 26 471 26zm31-159c199 0 310-134 310-271v-155c-30 35-226 55-295 64-131 17-246 59-246 186 0 116 97 176 231 176zm-23-1131l140-294h201l-194 294H479" id="Z"/><path fill="#a9afb8" d="M577 24c-279 0-473-224-473-580 0-354 195-576 474-576 218 0 287 134 324 193h14v-551h180V0H922v-173h-20C865-111 790 24 577 24zm27-161c203 0 314-172 314-421 0-247-108-413-314-413-212 0-317 181-317 413 0 235 108 421 317 421" id="aa"/><path fill="#a9afb8" d="M126 0v-134l627-806v-11H146v-167h839v143L376-178v11h629V0H126" id="ab"/><g id="e"><use transform="matrix(0.006946072048611111,0,0,0.006946072048611111,0,0)" xlink:href="#X"/><use transform="matrix(0.006946072048611111,0,0,0.006946072048611111,10.571921657986111,0)" xlink:href="#Y"/><use transform="matrix(0.006946072048611111,0,0,0.006946072048611111,18.86553168402778,0)" xlink:href="#T"/><use transform="matrix(0.006946072048611111,0,0,0.006946072048611111,24.4432275390625,0)" xlink:href="#R"/><use transform="matrix(0.006946072048611111,0,0,0.006946072048611111,32.84797471788195,0)" xlink:href="#Z"/><use transform="matrix(0.006946072048611111,0,0,0.006946072048611111,40.835957573784725,0)" xlink:href="#R"/><use transform="matrix(0.006946072048611111,0,0,0.006946072048611111,49.240704752604174,0)" xlink:href="#aa"/><use transform="matrix(0.006946072048611111,0,0,0.006946072048611111,57.95107910156251,0)" xlink:href="#Y"/><use transform="matrix(0.006946072048611111,0,0,0.006946072048611111,66.03630696614584,0)" xlink:href="#ab"/></g><path fill="#a9afb8" d="M98-1322v-168h1126v168H757V0H567v-1322H98" id="ac"/><path fill="#a9afb8" d="M538 24C308 24 148-78 108-271l171-41c32 123 123 178 257 178 156 0 256-77 256-169 0-77-54-128-164-154l-186-44c-203-48-300-148-300-305 0-192 176-326 414-326 230 0 351 112 402 269l-163 42c-31-80-94-158-238-158-133 0-233 69-233 162 0 83 57 129 188 160l169 40c203 48 298 149 298 302 0 196-179 339-441 339" id="ad"/><g id="f"><use transform="matrix(0.006946072048611111,0,0,0.006946072048611111,0,0)" xlink:href="#ac"/><use transform="matrix(0.006946072048611111,0,0,0.006946072048611111,8.071335720486111,0)" xlink:href="#W"/><use transform="matrix(0.006946072048611111,0,0,0.006946072048611111,16.601112196180555,0)" xlink:href="#T"/><use transform="matrix(0.006946072048611111,0,0,0.006946072048611111,22.178808051215277,0)" xlink:href="#T"/><use transform="matrix(0.006946072048611111,0,0,0.006946072048611111,27.298063151041667,0)" xlink:href="#Y"/><use transform="matrix(0.006946072048611111,0,0,0.006946072048611111,35.59167317708334,0)" xlink:href="#ad"/></g><path fill="#a9afb8" d="M419-1970V480H262v-2450h157" id="ae"/><use transform="matrix(0.006946072048611111,0,0,0.006946072048611111,0,0)" xlink:href="#ae" id="g"/><path fill="#a9afb8" d="M158 418v-1536h174v179h20c37-59 106-193 324-193 279 0 474 222 474 576 0 356-194 580-473 580-213 0-288-135-325-197h-14v591H158zm492-555c209 0 317-186 317-421 0-232-105-413-317-413-206 0-314 166-314 413 0 249 111 421 314 421" id="af"/><path fill="#a9afb8" d="M158 0v-1118h180V0H158zm91-1301c-68 0-125-53-125-119s57-119 125-119c69 0 126 53 126 119s-57 119-126 119" id="ag"/><g id="h"><use transform="matrix(0.006946072048611111,0,0,0.006946072048611111,0,0)" xlink:href="#S"/><use transform="matrix(0.006946072048611111,0,0,0.006946072048611111,9.8147998046875,0)" xlink:href="#af"/><use transform="matrix(0.006946072048611111,0,0,0.006946072048611111,18.525174153645832,0)" xlink:href="#T"/><use transform="matrix(0.006946072048611111,0,0,0.006946072048611111,24.102870008680554,0)" xlink:href="#ag"/><use transform="matrix(0.006946072048611111,0,0,0.006946072048611111,27.548121744791665,0)" xlink:href="#P"/></g><path fill="#a9afb8" d="M653-1490V0H466v-1314h-10L96-1047v-204l324-239h233" id="ah"/><path fill="#a9afb8" d="M626 20c-262 0-458-168-468-396h184c12 133 134 229 284 229 180 0 311-137 311-326 0-192-136-335-323-335-92 0-196 33-255 78l-178-22 88-738h784v167H429l-51 435h8c61-51 160-87 263-87 273 0 474 211 474 499 0 286-210 496-497 496" id="ai"/><path fill="#a9afb8" d="M128 359l88-567h206L266 359H128" id="aj"/><g id="i"><use transform="matrix(0.006946072048611111,0,0,0.006946072048611111,0,0)" xlink:href="#ah"/><use transform="matrix(0.006946072048611111,0,0,0.006946072048611111,5.786078016493056,0)" xlink:href="#ai"/><use transform="matrix(0.006946072048611111,0,0,0.006946072048611111,14.433937717013889,0)" xlink:href="#aj"/></g><path fill="#a9afb8" d="M154 0v-137l495-537c165-179 249-281 249-418 0-156-121-253-280-253-170 0-278 110-278 278H158c0-264 200-443 465-443 266 0 455 183 455 416 0 161-73 288-336 568L416-179v12h687V0H154" id="ak"/><path fill="#a9afb8" d="M646 20c-332 0-524-278-524-764 0-483 194-766 524-766s524 283 524 766c0 485-191 764-524 764zm0-166c218 0 341-220 341-598 0-380-123-601-341-601s-341 222-341 601c0 378 123 598 341 598" id="al"/><path fill="#a9afb8" d="M646 20c-249 0-524-159-524-708 0-524 209-822 547-822 250 0 431 161 467 395H950c-33-129-126-227-281-227-229 0-367 208-367 566h12c80-124 212-198 367-198 255 0 467 205 467 493 0 278-198 501-502 501zm0-167c179 0 318-148 318-334 0-182-133-328-313-328-181 0-322 156-322 330 0 176 134 332 317 332" id="am"/><g id="j"><use transform="matrix(0.006946072048611111,0,0,0.006946072048611111,0,0)" xlink:href="#ak"/><use transform="matrix(0.006946072048611111,0,0,0.006946072048611111,8.675643988715278,0)" xlink:href="#al"/><use transform="matrix(0.006946072048611111,0,0,0.006946072048611111,17.649969075520833,0)" xlink:href="#ak"/><use transform="matrix(0.006946072048611111,0,0,0.006946072048611111,26.32561306423611,0)" xlink:href="#am"/></g><path d="M180 0v-1490h901v168H370v510h643v168H370V0H180" id="an"/><path d="M471 26C259 26 90-98 90-318c0-256 228-303 435-329 202-27 287-16 287-108 0-139-79-219-234-219-161 0-248 86-283 164l-173-57c86-203 278-265 451-265 150 0 419 46 419 395V0H815v-152h-12C765-73 660 26 471 26zm31-159c199 0 310-134 310-271v-155c-30 35-226 55-295 64-131 17-246 59-246 186 0 116 97 176 231 176" id="ao"/><path d="M613 24c-304 0-509-231-509-576 0-350 205-580 509-580 216 0 392 114 453 309l-173 49c-33-115-133-197-280-197-223 0-326 196-326 419 0 220 103 415 326 415 150 0 252-85 285-206l172 49C1010-95 832 24 613 24" id="ap"/><path d="M158 0v-1118h180V0H158zm91-1301c-68 0-125-53-125-119s57-119 125-119c69 0 126 53 126 119s-57 119-126 119" id="aq"/><path d="M338-1490V0H158v-1490h180" id="ar"/><path d="M598-1118v154H368v674c0 100 37 144 132 144 23 0 62-6 92-12L629-6c-37 13-88 20-134 20-193 0-307-107-307-290v-688H20v-154h168v-266h180v266h230" id="as"/><path d="M628 24c-324 0-524-230-524-574 0-343 198-582 503-582 237 0 487 146 487 559v75H286c9 234 145 362 343 362 132 0 231-58 273-172l174 48C1024-91 857 24 628 24zM287-650h624c-17-190-120-322-304-322-192 0-309 151-320 322" id="at"/><path d="M538 24C308 24 148-78 108-271l171-41c32 123 123 178 257 178 156 0 256-77 256-169 0-77-54-128-164-154l-186-44c-203-48-300-148-300-305 0-192 176-326 414-326 230 0 351 112 402 269l-163 42c-31-80-94-158-238-158-133 0-233 69-233 162 0 83 57 129 188 160l169 40c203 48 298 149 298 302 0 196-179 339-441 339" id="au"/><g id="k"><use transform="matrix(0.0087890625,0,0,0.0087890625,0,0)" xlink:href="#an"/><use transform="matrix(0.0087890625,0,0,0.0087890625,10.1865234375,0)" xlink:href="#ao"/><use transform="matrix(0.0087890625,0,0,0.0087890625,20.2939453125,0)" xlink:href="#ap"/><use transform="matrix(0.0087890625,0,0,0.0087890625,30.5771484375,0)" xlink:href="#aq"/><use transform="matrix(0.0087890625,0,0,0.0087890625,34.9365234375,0)" xlink:href="#ar"/><use transform="matrix(0.0087890625,0,0,0.0087890625,39.2958984375,0)" xlink:href="#aq"/><use transform="matrix(0.0087890625,0,0,0.0087890625,43.6552734375,0)" xlink:href="#as"/><use transform="matrix(0.0087890625,0,0,0.0087890625,49.5439453125,0)" xlink:href="#aq"/><use transform="matrix(0.0087890625,0,0,0.0087890625,53.9033203125,0)" xlink:href="#at"/><use transform="matrix(0.0087890625,0,0,0.0087890625,64.3974609375,0)" xlink:href="#au"/></g><path d="M180 0v-1490h510c348 0 508 209 508 474 0 266-160 477-507 477H370V0H180zm190-706h312c236 0 327-133 327-310 0-176-91-307-329-307H370v617" id="av"/><path d="M180 0v-1490h190c0 262 1 526-3 784 217-279 467-523 702-784h249L716-845 1319 0h-225L585-716 370-489V0H180" id="aw"/><g id="l"><use transform="matrix(0.0087890625,0,0,0.0087890625,0,0)" xlink:href="#av"/><use transform="matrix(0.0087890625,0,0,0.0087890625,11.49609375,0)" xlink:href="#aw"/></g><path d="M577 24c-279 0-473-224-473-580 0-354 195-576 474-576 218 0 287 134 324 193h14v-551h180V0H922v-173h-20C865-111 790 24 577 24zm27-161c203 0 314-172 314-421 0-247-108-413-314-413-212 0-317 181-317 413 0 235 108 421 317 421" id="ax"/><g id="m"><use transform="matrix(0.0087890625,0,0,0.0087890625,0,0)" xlink:href="#aq"/><use transform="matrix(0.0087890625,0,0,0.0087890625,4.359375,0)" xlink:href="#ax"/></g><path d="M180 0v-1490h528c311 0 458 177 458 395 0 191-114 278-244 313v14c139 9 302 137 302 371 0 225-148 397-499 397H180zm190-168h350c232 0 321-102 321-231 0-149-120-277-311-277H370v508zm0-668h328c160 0 286-101 286-255 0-129-87-231-280-231H370v486" id="ay"/><path d="M370-1490V0H180v-1490h190" id="az"/><path d="M789 20c-398 0-667-293-667-764 0-473 273-766 655-766 315 0 558 198 612 487h-196c-61-191-204-311-415-311-262 0-471 207-471 590 0 380 208 588 482 588 249 0 420-165 425-427H828v-166h572v163c0 370-256 606-611 606" id="aA"/><path d="M180 0v-1490h224l606 953c40 63 108 177 176 312-27-437-7-821-13-1265h190V0h-226C860-448 622-778 356-1262c27 476 11 792 15 1262H180" id="aB"/><path d="M98-1322v-168h1126v168H757V0H567v-1322H98" id="aC"/><g id="n"><use transform="matrix(0.0087890625,0,0,0.0087890625,0,0)" xlink:href="#ay"/><use transform="matrix(0.0087890625,0,0,0.0087890625,11.77734375,0)" xlink:href="#az"/><use transform="matrix(0.0087890625,0,0,0.0087890625,16.611328125,0)" xlink:href="#aA"/><use transform="matrix(0.0087890625,0,0,0.0087890625,30.041015625,0)" xlink:href="#az"/><use transform="matrix(0.0087890625,0,0,0.0087890625,34.875,0)" xlink:href="#aB"/><use transform="matrix(0.0087890625,0,0,0.0087890625,48.4365234375,0)" xlink:href="#aC"/></g><path d="M338-670V0H158v-1118h173l1 207c72-158 192-221 342-221 226 0 378 139 378 422V0H872v-695c0-172-96-275-252-275-161 0-282 109-282 300" id="aD"/><path d="M158 0v-1118h175l1 205c55-151 181-225 313-225 147 0 245 90 285 228 53-141 190-228 352-228 194 0 352 125 352 384V0h-181v-749c0-161-105-225-225-225-151 0-243 103-243 244V0H807v-767c0-124-93-207-219-207-131 0-250 92-250 270V0H158" id="aE"/><g id="o"><use transform="matrix(0.0087890625,0,0,0.0087890625,0,0)" xlink:href="#aD"/><use transform="matrix(0.0087890625,0,0,0.0087890625,10.634765625,0)" xlink:href="#ao"/><use transform="matrix(0.0087890625,0,0,0.0087890625,20.7421875,0)" xlink:href="#aE"/><use transform="matrix(0.0087890625,0,0,0.0087890625,36.509765625,0)" xlink:href="#at"/></g><path d="M600 0L52-1490h200c166 485 304 806 458 1336 156-533 285-846 449-1336h202L819 0H600" id="aF"/><path d="M52 0l541-1490h220L1361 0h-200l-149-416H398L254 0H52zm404-582h497c-103-290-145-390-251-756-108 377-145 460-246 756" id="aG"/><path d="M180 0v-1490h510c348 0 508 194 508 460 0 198-88 351-276 417L1256 0h-220L726-579c-117 2-238 0-356 1V0H180zm190-747h312c235 0 327-108 327-283 0-177-92-293-329-293H370v576" id="aH"/><path d="M783 20c-382 0-661-292-661-764 0-473 279-766 661-766 302 0 548 182 601 489h-190c-42-204-217-313-411-313-268 0-476 208-476 590 0 381 209 588 476 588 195 0 369-110 411-313h190c-52 303-296 489-601 489" id="aI"/><path d="M180 0v-1490h190v644h782v-644h190V0h-190v-678H370V0H180" id="aJ"/><g id="p"><use transform="matrix(0.0087890625,0,0,0.0087890625,0,0)" xlink:href="#aF"/><use transform="matrix(0.0087890625,0,0,0.0087890625,11.1884765625,0)" xlink:href="#aG"/><use transform="matrix(0.0087890625,0,0,0.0087890625,23.607421875,0)" xlink:href="#aH"/><use transform="matrix(0.0087890625,0,0,0.0087890625,35.19140625,0)" xlink:href="#aI"/><use transform="matrix(0.0087890625,0,0,0.0087890625,48.33984375,0)" xlink:href="#aJ"/><use transform="matrix(0.0087890625,0,0,0.0087890625,61.716796875,0)" xlink:href="#aG"/><use transform="matrix(0.0087890625,0,0,0.0087890625,74.1357421875,0)" xlink:href="#aH"/></g><path d="M158 0v-1118h174v172h12c41-113 157-188 290-188 26 0 70 2 91 3v181c-11-2-60-10-108-10-161 0-279 109-279 260V0H158" id="aK"/><path d="M613 24c-304 0-509-231-509-576 0-350 205-580 509-580 305 0 511 230 511 580 0 345-206 576-511 576zm0-161c226 0 329-195 329-415 0-222-103-419-329-419-223 0-326 196-326 419 0 220 103 415 326 415" id="aL"/><g id="q"><use transform="matrix(0.0087890625,0,0,0.0087890625,0,0)" xlink:href="#aA"/><use transform="matrix(0.0087890625,0,0,0.0087890625,13.4296875,0)" xlink:href="#at"/><use transform="matrix(0.0087890625,0,0,0.0087890625,23.923828125,0)" xlink:href="#aD"/><use transform="matrix(0.0087890625,0,0,0.0087890625,34.55859375,0)" xlink:href="#at"/><use transform="matrix(0.0087890625,0,0,0.0087890625,45.052734375,0)" xlink:href="#aK"/><use transform="matrix(0.0087890625,0,0,0.0087890625,51.8291015625,0)" xlink:href="#ao"/><use transform="matrix(0.0087890625,0,0,0.0087890625,61.9365234375,0)" xlink:href="#as"/><use transform="matrix(0.0087890625,0,0,0.0087890625,67.6494140625,0)" xlink:href="#aL"/><use transform="matrix(0.0087890625,0,0,0.0087890625,78.4423828125,0)" xlink:href="#aK"/><use transform="matrix(0.0087890625,0,0,0.0087890625,85.21875,0)" xlink:href="#au"/></g><g id="r"><use transform="matrix(0.0087890625,0,0,0.0087890625,0,0)" xlink:href="#an"/><use transform="matrix(0.0087890625,0,0,0.0087890625,10.6259765625,0)" xlink:href="#aw"/></g><path d="M678-1118v154H420V0H240v-964H20v-154h220v-149c0-194 155-293 318-293 85 0 141 18 168 30l-50 154c-19-6-47-17-97-17-111 0-159 58-159 166v109h258" id="aM"/><path d="M140 405l46-156c120 36 205 19 263-150l32-93L54-1118h197c107 313 237 620 324 950 87-331 219-637 326-950h196L606 167c-68 178-176 259-334 259-64 0-113-12-132-21" id="aN"/><path d="M934 0v166H0V0h934" id="aO"/><g id="s"><use transform="matrix(0.0087890625,0,0,0.0087890625,0,0)" xlink:href="#aM"/><use transform="matrix(0.0087890625,0,0,0.0087890625,6.380859375,0)" xlink:href="#ao"/><use transform="matrix(0.0087890625,0,0,0.0087890625,16.48828125,0)" xlink:href="#ap"/><use transform="matrix(0.0087890625,0,0,0.0087890625,26.771484375,0)" xlink:href="#aq"/><use transform="matrix(0.0087890625,0,0,0.0087890625,31.130859375,0)" xlink:href="#ar"/><use transform="matrix(0.0087890625,0,0,0.0087890625,35.490234375,0)" xlink:href="#aq"/><use transform="matrix(0.0087890625,0,0,0.0087890625,39.849609375,0)" xlink:href="#as"/><use transform="matrix(0.0087890625,0,0,0.0087890625,46.08984375,0)" xlink:href="#aN"/><use transform="matrix(0.0087890625,0,0,0.0087890625,54.7822265625,0)" xlink:href="#aO"/><use transform="matrix(0.0087890625,0,0,0.0087890625,63.59765625,0)" xlink:href="#aq"/><use transform="matrix(0.0087890625,0,0,0.0087890625,67.95703125,0)" xlink:href="#ax"/></g><path d="M763 24c-353 0-583-224-583-531v-983h190v968c0 214 149 370 393 370 243 0 391-156 391-370v-968h190v983c0 307-230 531-581 531" id="aP"/><path d="M784 20c-382 0-662-292-662-764 0-473 280-766 662-766s660 293 660 766c0 282-99 499-260 629l192 255h-198L1049-33C969 2 880 20 784 20zm-62-486h198l156 205c112-98 183-261 183-483 0-383-209-590-475-590-268 0-477 208-477 590 0 380 209 588 477 588 54 0 106-9 154-25" id="aQ"/><g id="t"><use transform="matrix(0.0087890625,0,0,0.0087890625,0,0)" xlink:href="#aP"/><use transform="matrix(0.0087890625,0,0,0.0087890625,13.39453125,0)" xlink:href="#aQ"/></g><path d="M611 442c-248 0-391-105-460-228l146-94c47 65 117 165 314 165 178 0 307-82 307-266v-224h-17C863-141 792-18 576-18c-268 0-472-195-472-546 0-346 197-568 476-568 216 0 288 133 326 193h17v-179h175V29c0 289-215 413-487 413zm-5-620c203 0 314-146 314-390 0-237-108-403-314-403-213 0-319 180-319 403 0 230 109 390 319 390" id="aR"/><path d="M537 14c-226 0-379-139-379-422v-710h180v695c0 172 97 275 253 275 160 0 281-109 281-300v-670h181V0H879v-209C806-46 684 14 537 14" id="aS"/><path d="M677 24c-213 0-288-135-325-197h-20V0H158v-1490h180v551h14c37-59 106-193 324-193 279 0 474 222 474 576 0 356-194 580-473 580zm-27-161c209 0 317-186 317-421 0-232-105-413-317-413-206 0-314 166-314 413 0 249 111 421 314 421" id="aT"/><g id="u"><use transform="matrix(0.0087890625,0,0,0.0087890625,0,0)" xlink:href="#aR"/><use transform="matrix(0.0087890625,0,0,0.0087890625,11.0390625,0)" xlink:href="#at"/><use transform="matrix(0.0087890625,0,0,0.0087890625,21.533203125,0)" xlink:href="#aD"/><use transform="matrix(0.0087890625,0,0,0.0087890625,32.16796875,0)" xlink:href="#at"/><use transform="matrix(0.0087890625,0,0,0.0087890625,42.662109375,0)" xlink:href="#aK"/><use transform="matrix(0.0087890625,0,0,0.0087890625,49.4384765625,0)" xlink:href="#ao"/><use transform="matrix(0.0087890625,0,0,0.0087890625,59.5458984375,0)" xlink:href="#as"/><use transform="matrix(0.0087890625,0,0,0.0087890625,65.2587890625,0)" xlink:href="#aL"/><use transform="matrix(0.0087890625,0,0,0.0087890625,76.0517578125,0)" xlink:href="#aK"/><use transform="matrix(0.0087890625,0,0,0.0087890625,82.828125,0)" xlink:href="#aO"/><use transform="matrix(0.0087890625,0,0,0.0087890625,91.6435546875,0)" xlink:href="#aD"/><use transform="matrix(0.0087890625,0,0,0.0087890625,102.2783203125,0)" xlink:href="#aS"/><use transform="matrix(0.0087890625,0,0,0.0087890625,112.921875,0)" xlink:href="#aE"/><use transform="matrix(0.0087890625,0,0,0.0087890625,128.689453125,0)" xlink:href="#aT"/><use transform="matrix(0.0087890625,0,0,0.0087890625,139.7109375,0)" xlink:href="#at"/><use transform="matrix(0.0087890625,0,0,0.0087890625,150.205078125,0)" xlink:href="#aK"/></g><path d="M158 418v-1536h174v179h20c37-59 106-193 324-193 279 0 474 222 474 576 0 356-194 580-473 580-213 0-288-135-325-197h-14v591H158zm492-555c209 0 317-186 317-421 0-232-105-413-317-413-206 0-314 166-314 413 0 249 111 421 314 421" id="aU"/><g id="v"><use transform="matrix(0.0087890625,0,0,0.0087890625,0,0)" xlink:href="#ap"/><use transform="matrix(0.0087890625,0,0,0.0087890625,10.458984375,0)" xlink:href="#ao"/><use transform="matrix(0.0087890625,0,0,0.0087890625,20.56640625,0)" xlink:href="#aU"/><use transform="matrix(0.0087890625,0,0,0.0087890625,31.763671875,0)" xlink:href="#ao"/><use transform="matrix(0.0087890625,0,0,0.0087890625,41.87109375,0)" xlink:href="#ap"/><use transform="matrix(0.0087890625,0,0,0.0087890625,52.154296875,0)" xlink:href="#aq"/><use transform="matrix(0.0087890625,0,0,0.0087890625,56.513671875,0)" xlink:href="#as"/><use transform="matrix(0.0087890625,0,0,0.0087890625,62.75390625,0)" xlink:href="#aN"/></g><path d="M645 0H180v-1490h484c435 0 692 280 692 742 0 466-257 748-711 748zM370-168h263c363 0 539-218 539-580 0-358-176-574-521-574H370v1154" id="aV"/><path d="M784 20c-382 0-662-292-662-764 0-473 280-766 662-766s660 293 660 766c0 472-278 764-660 764zm0-176c266 0 475-207 475-588 0-383-209-590-475-590-268 0-477 208-477 590 0 380 209 588 477 588" id="aW"/><path d="M180 0v-1490h190v1322h690V0H180" id="aX"/><path d="M180 0v-1490h908v168H370v486h669v168H370v500h727V0H180" id="aY"/><g id="w"><use transform="matrix(0.0087890625,0,0,0.0087890625,0,0)" xlink:href="#aV"/><use transform="matrix(0.0087890625,0,0,0.0087890625,12.990234375,0)" xlink:href="#aW"/><use transform="matrix(0.0087890625,0,0,0.0087890625,26.75390625,0)" xlink:href="#aP"/><use transform="matrix(0.0087890625,0,0,0.0087890625,40.1484375,0)" xlink:href="#ay"/><use transform="matrix(0.0087890625,0,0,0.0087890625,51.92578125,0)" xlink:href="#aX"/><use transform="matrix(0.0087890625,0,0,0.0087890625,62.103515625,0)" xlink:href="#aY"/></g><g id="x"><use transform="matrix(0.0087890625,0,0,0.0087890625,0,0)" xlink:href="#aW"/><use transform="matrix(0.0087890625,0,0,0.0087890625,13.763671875,0)" xlink:href="#aS"/><use transform="matrix(0.0087890625,0,0,0.0087890625,24.4072265625,0)" xlink:href="#as"/><use transform="matrix(0.0087890625,0,0,0.0087890625,30.3837890625,0)" xlink:href="#ao"/><use transform="matrix(0.0087890625,0,0,0.0087890625,40.4912109375,0)" xlink:href="#aR"/><use transform="matrix(0.0087890625,0,0,0.0087890625,51.5302734375,0)" xlink:href="#at"/><use transform="matrix(0.0087890625,0,0,0.0087890625,62.0244140625,0)" xlink:href="#au"/></g><g id="y"><use transform="matrix(0.0087890625,0,0,0.0087890625,0,0)" xlink:href="#aU"/><use transform="matrix(0.0087890625,0,0,0.0087890625,11.021484375,0)" xlink:href="#at"/><use transform="matrix(0.0087890625,0,0,0.0087890625,21.515625,0)" xlink:href="#aK"/><use transform="matrix(0.0087890625,0,0,0.0087890625,28.5732421875,0)" xlink:href="#aq"/><use transform="matrix(0.0087890625,0,0,0.0087890625,32.9326171875,0)" xlink:href="#aL"/><use transform="matrix(0.0087890625,0,0,0.0087890625,43.7255859375,0)" xlink:href="#ax"/></g><g id="z"><use transform="matrix(0.0087890625,0,0,0.0087890625,0,0)" xlink:href="#aV"/><use transform="matrix(0.0087890625,0,0,0.0087890625,12.375,0)" xlink:href="#aG"/><use transform="matrix(0.0087890625,0,0,0.0087890625,23.2646484375,0)" xlink:href="#aC"/><use transform="matrix(0.0087890625,0,0,0.0087890625,34.8837890625,0)" xlink:href="#aY"/></g><g id="A"><use transform="matrix(0.0087890625,0,0,0.0087890625,0,0)" xlink:href="#aR"/><use transform="matrix(0.0087890625,0,0,0.0087890625,11.0390625,0)" xlink:href="#at"/><use transform="matrix(0.0087890625,0,0,0.0087890625,21.533203125,0)" xlink:href="#aD"/><use transform="matrix(0.0087890625,0,0,0.0087890625,32.16796875,0)" xlink:href="#at"/><use transform="matrix(0.0087890625,0,0,0.0087890625,42.662109375,0)" xlink:href="#aK"/><use transform="matrix(0.0087890625,0,0,0.0087890625,49.4384765625,0)" xlink:href="#ao"/><use transform="matrix(0.0087890625,0,0,0.0087890625,59.5458984375,0)" xlink:href="#as"/><use transform="matrix(0.0087890625,0,0,0.0087890625,65.2587890625,0)" xlink:href="#aL"/><use transform="matrix(0.0087890625,0,0,0.0087890625,76.0517578125,0)" xlink:href="#aK"/><use transform="matrix(0.0087890625,0,0,0.0087890625,82.828125,0)" xlink:href="#aO"/><use transform="matrix(0.0087890625,0,0,0.0087890625,91.6435546875,0)" xlink:href="#aq"/><use transform="matrix(0.0087890625,0,0,0.0087890625,96.0029296875,0)" xlink:href="#ax"/></g><g id="B"><use transform="matrix(0.0087890625,0,0,0.0087890625,0,0)" xlink:href="#aL"/><use transform="matrix(0.0087890625,0,0,0.0087890625,10.79296875,0)" xlink:href="#aS"/><use transform="matrix(0.0087890625,0,0,0.0087890625,21.4365234375,0)" xlink:href="#as"/><use transform="matrix(0.0087890625,0,0,0.0087890625,27.4130859375,0)" xlink:href="#ao"/><use transform="matrix(0.0087890625,0,0,0.0087890625,37.5205078125,0)" xlink:href="#aR"/><use transform="matrix(0.0087890625,0,0,0.0087890625,48.5595703125,0)" xlink:href="#at"/></g></defs></g></svg>